<svg width="720" height="420" viewBox="0 0 720 420" fill="none" xmlns="http://www.w3.org/2000/svg" role="img" aria-labelledby="title desc">
  <title id="title">Control de inventario</title>
  <desc id="desc">Ilustración de cajas, estanterías y panel de métricas para representar control e inventario.</desc>
  <defs>
    <linearGradient id="bg" x1="40" y1="40" x2="680" y2="380" gradientUnits="userSpaceOnUse">
      <stop stop-color="#0F172A"/>
      <stop offset="1" stop-color="#13213B"/>
    </linearGradient>
    <linearGradient id="accent" x1="70" y1="220" x2="650" y2="220" gradientUnits="userSpaceOnUse">
      <stop stop-color="#F59E0B"/>
      <stop offset="0.5" stop-color="#38BDF8"/>
      <stop offset="1" stop-color="#22C55E"/>
    </linearGradient>
  </defs>

  <rect x="10" y="10" width="700" height="400" rx="28" fill="url(#bg)"/>
  <rect x="26" y="26" width="668" height="368" rx="24" stroke="#334155" stroke-opacity="0.45"/>

  <rect x="76" y="94" width="232" height="232" rx="18" fill="#0B1220" stroke="#334155"/>
  <rect x="108" y="126" width="72" height="72" rx="10" fill="#1E293B" stroke="#475569"/>
  <rect x="200" y="126" width="72" height="72" rx="10" fill="#1E293B" stroke="#475569"/>
  <rect x="108" y="218" width="72" height="72" rx="10" fill="#1E293B" stroke="#475569"/>
  <rect x="200" y="218" width="72" height="72" rx="10" fill="#1E293B" stroke="#475569"/>

  <path d="M126 148H162L170 158V176L144 192L118 176V158L126 148Z" fill="#F59E0B"/>
  <path d="M218 148H254L262 158V176L236 192L210 176V158L218 148Z" fill="#38BDF8"/>
  <path d="M126 240H162L170 250V268L144 284L118 268V250L126 240Z" fill="#22C55E"/>
  <path d="M218 240H254L262 250V268L236 284L210 268V250L218 240Z" fill="#F59E0B"/>

  <rect x="364" y="94" width="280" height="132" rx="20" fill="#0B1220" stroke="#1D4ED8" stroke-opacity="0.45"/>
  <text x="394" y="128" fill="#F8FAFC" font-family="Plus Jakarta Sans, Arial, sans-serif" font-size="20" font-weight="700">Control en tiempo real</text>
  <rect x="394" y="152" width="220" height="10" rx="5" fill="#1E293B"/>
  <rect x="394" y="152" width="170" height="10" rx="5" fill="#22C55E"/>
  <rect x="394" y="176" width="220" height="10" rx="5" fill="#1E293B"/>
  <rect x="394" y="176" width="126" height="10" rx="5" fill="#38BDF8"/>
  <rect x="394" y="200" width="220" height="10" rx="5" fill="#1E293B"/>
  <rect x="394" y="200" width="184" height="10" rx="5" fill="#F59E0B"/>

  <rect x="364" y="250" width="280" height="76" rx="18" fill="#0B1220" stroke="#334155"/>
  <text x="394" y="280" fill="#94A3B8" font-family="Plus Jakarta Sans, Arial, sans-serif" font-size="16" font-weight="600">Visibilidad de stock</text>
  <text x="394" y="312" fill="#F8FAFC" font-family="Plus Jakarta Sans, Arial, sans-serif" font-size="34" font-weight="800">98.6%</text>
  <circle cx="596" cy="288" r="22" fill="#22C55E" fill-opacity="0.18" stroke="#22C55E"/>
  <path d="M586 288L593 295L608 280" stroke="#86EFAC" stroke-width="5" stroke-linecap="round" stroke-linejoin="round"/>

  <path d="M94 348C162 328 224 330 294 348C354 364 432 368 514 342C570 324 624 322 666 334" stroke="url(#accent)" stroke-width="8" stroke-linecap="round" stroke-dasharray="1 20"/>
  <circle cx="146" cy="344" r="7" fill="#F59E0B"/>
  <circle cx="360" cy="360" r="7" fill="#38BDF8"/>
  <circle cx="560" cy="334" r="7" fill="#22C55E"/>
</svg>
